PathFileType	4	(X/Y/Z)	Patient4_TMGait_0pt2_02_left_14.trc.trc
DataRate	CameraRate	NumFrames	NumMarkers	Units	OrigDataRate	OrigDataStartFrame	OrigNumFrames
43.613707165109	43.613707165109	5	33	mm	43.613707165109	18	       141
Frame#	Time	R.Midfoot.Superior			Sacral			L.Shoulder			Chest			R.Shoulder			Neck			R.ASIS			L.ASIS			R.Thigh.Superior			R.Thigh.Lateral			R.Thigh.Inferior			R.Patella			L.Thigh.Superior			L.Thigh.Lateral			L.Thigh.Inferior			L.Patella			L.Shank.Superior			L.Shank.Lateral			L.Shank.Inferior			R.Shank.Superior			R.Shank.Lateral			R.Shank.Inferior			R.Heel			R.Midfoot.Lateral			R.Toe			L.Heel			L.Midfoot.Lateral			L.Midfoot.Superior			L.Toe			L.Elbow			L.Wrist			R.Elbow			R.Wrist			
		X1	Y1	Z1	X2	Y2	Z2	X3	Y3	Z3	X4	Y4	Z4	X5	Y5	Z5	X6	Y6	Z6	X7	Y7	Z7	X8	Y8	Z8	X9	Y9	Z9	X10	Y10	Z10	X11	Y11	Z11	X12	Y12	Z12	X13	Y13	Z13	X14	Y14	Z14	X15	Y15	Z15	X16	Y16	Z16	X17	Y17	Z17	X18	Y18	Z18	X19	Y19	Z19	X20	Y20	Z20	X21	Y21	Z21	X22	Y22	Z22	X23	Y23	Z23	X24	Y24	Z24	X25	Y25	Z25	X26	Y26	Z26	X27	Y27	Z27	X28	Y28	Z28	X29	Y29	Z29	X30	Y30	Z30	X31	Y31	Z31	X32	Y32	Z32	X33	Y33	Z33	

18	32.359785714286	903.299513604253	95.788830975664	595.990397991484	778.868651646720	1004.557943524917	612.024042575717	900.081756829250	1429.652938652369	383.271993991245	1051.924947184474	1351.680325099581	493.710797616333	1046.133203778812	1433.310699246043	681.331986186658	946.300654457004	1487.495830391863	534.035249366182	1027.812628758217	926.445743137723	653.177089073896	937.489723965245	965.454821369757	395.348145148091	1041.989880301452	722.230183054346	605.354801932364	968.972813446922	610.847011842335	673.776960664050	1021.919604800350	561.301129606334	575.133039945097	1015.896952272658	467.031203998927	578.250387673526	1021.839714759203	779.574597917217	412.017805393080	962.089850645667	650.263517112254	339.419460070710	1066.766500057243	589.307778829457	391.436050909421	1090.272325111458	523.629958646144	384.318791362299	1071.617332202586	450.805760066990	369.292004130933	999.485072378166	326.338720405657	310.181862901205	1085.235847797165	219.685758283485	354.857072304945	966.521761640736	384.459988034066	589.496695965137	883.729377868923	293.376738354379	657.203302021842	894.908003255563	196.633783876949	587.729567046974	729.406567417098	47.494944253355	566.877644247726	814.866350523977	38.377667248063	638.158894437880	1022.602855256512	39.137045876087	621.629668316192	994.014769033201	41.503802373074	383.894772279097	1067.852786467873	45.235317718175	303.519140769126	1142.408085507677	120.409041495840	325.040595541995	1274.890642827728	87.561887107110	296.547514170578	702.730153867422	1131.113440569002	353.298629708689	632.207286764652	890.514015749008	430.803544857534	1278.201617451113	1192.954429216787	766.212227763207	1516.445116612601	1237.151780510510	674.716762103338	
19	32.382714285714	898.707912457905	95.784250703693	596.012629651866	779.329661131516	1004.941026554876	610.572114359755	899.001027375277	1430.161267614253	381.754972060200	1051.643792596832	1351.787532047589	490.805892642403	1047.465569697460	1433.270346897339	678.377451553075	946.349244041878	1487.691589778989	532.208101344705	1028.230433208916	926.389111917517	650.614857308183	936.712474035233	965.462703315692	393.092288184665	1040.021243742538	721.772286331293	603.660009096000	966.203906489268	611.080297360562	672.964950366150	1018.363658516169	560.726701247219	574.582275226629	1011.398040827271	466.747404607067	578.124881563722	1019.399188901582	777.858818591554	408.268992693230	956.722750803118	648.558345697738	337.247502654692	1061.689589278960	587.477160205461	387.961583508254	1084.177064698702	523.123602319811	382.229014353647	1068.499456865953	450.780463082607	367.280487674102	1001.018631445311	323.576325686961	307.947412918408	1090.410987525635	219.994786432934	353.215329885770	962.096781802184	384.416186639999	589.392051116690	879.188189608626	293.463714578680	657.188683616749	890.339417340974	196.666185082157	587.754323989814	724.750297871897	47.491134563014	566.925625894205	810.215123053864	38.337938103609	638.190955880789	1017.954323238112	39.127500110826	621.625410624212	1004.831306410839	39.590475131040	382.040268381379	1079.179430571224	44.543967836349	302.175910547588	1151.625028429621	121.600795422210	324.013822167905	1285.150890727095	91.759542519960	296.786710406022	699.423916175525	1133.344673186865	355.562831660704	627.298620100353	894.241770692433	436.818895065675	1284.706400764699	1198.951150895515	758.023143053204	1517.617881086797	1256.759637839370	660.978731926780	
20	32.405642857143	894.121571189073	95.786002848034	596.018400898667	779.923485182743	1004.731403107626	608.643667250611	898.173212753856	1430.067720598136	379.674363908528	1051.458837834100	1351.478287202322	487.668910046110	1048.450618293376	1432.802558501248	675.185397338116	946.354606623549	1487.423783259857	529.906455051530	1028.821236877752	926.036971121418	647.941035185807	936.386791396136	964.812586709354	390.616712344288	1038.605524066671	721.065634512214	601.840340527868	964.013075335590	610.990377292822	671.876042645674	1015.488686345175	559.910956217226	573.784811925756	1007.604655803586	466.119570621313	577.710728159534	1017.695140886469	775.693343735461	404.640233990364	952.438366869111	646.386782859515	335.266241674446	1057.709804995413	585.284658308777	384.853413303479	1078.954970120126	521.810416604892	380.336268474696	1065.615918149677	449.940517132645	365.424154978134	1001.414074875486	320.993420428501	306.355404659101	1093.334807354306	219.824995411874	351.981716985675	958.211171791078	384.039894639556	589.021279046304	875.030496910559	293.405628524857	656.970249122159	885.979953615696	196.505698488219	587.650697847757	720.095478019440	47.442892717054	566.944201160810	805.558835896584	38.282430948537	638.205207385173	1013.302135523951	39.123558772326	621.622455516897	1011.792551448467	38.468749208412	381.049089643875	1086.219210751702	44.184982032550	301.337426120054	1157.326978849074	122.171392361829	323.320064905267	1291.265614379271	94.114499813919	296.565568149076	697.162356506673	1134.379481017987	356.550573043771	623.779756838008	896.482781286741	440.755346605070	1289.965085621684	1203.753355652112	750.065990193243	1517.226696300256	1273.794823672098	648.086756547350	
21	32.428571428571	889.536447987634	95.794431942967	596.014588324470	780.696373373304	1004.026914980787	606.270326936811	897.548888186500	1429.470119841167	377.035012392094	1051.367221102725	1350.871139587702	484.270841849918	1049.115591878916	1432.035165851427	671.736369345806	946.289604158064	1486.788785046864	527.131125146041	1029.638186019708	925.463212945113	645.130414296122	936.529499171474	963.629704602125	387.917538909559	1037.734414907911	720.134827880393	599.887985874870	962.339885765500	610.634217771028	670.517892955770	1013.204421998461	558.880597775335	572.745768681033	1004.398347531373	465.201120194974	577.014988198614	1016.766082201088	773.202436529101	401.181433373347	949.297770078501	643.904525694249	333.441807755665	1054.837858010408	582.840814827006	382.117973138268	1074.710767158108	519.853215395100	378.606433919995	1063.105613176070	448.397740407214	363.706772339003	1000.895032316036	318.494273470731	305.290883782127	1094.375179920997	219.051511976756	351.101097025337	954.767148490742	383.384189933687	588.398707321872	871.190024073139	293.231059378188	656.563378611780	881.788766947390	196.182756540055	587.428480764988	715.440912583026	47.354722319228	566.938011995813	800.898397354294	38.213564818500	638.205474361516	1008.646134282968	39.125801760101	621.621185477174	1015.281565515728	37.835266970331	380.769624731429	1089.471540892999	43.820434695245	300.919322409690	1160.033437427158	121.879856252253	322.933441303565	1293.895473719647	94.376485426306	296.011510057344	695.900260069171	1134.310644264677	356.161423427409	621.637574069249	897.269154688224	442.415761996008	1294.088163206872	1207.446362193108	742.415043877310	1515.625300333029	1288.239362329407	636.070676847913	
22	32.451500000000	884.951705721672	95.811277683071	596.007820051075	781.684554199736	1002.960723980663	603.482645953645	897.094309277527	1428.493474005349	373.857303559168	1051.375259133553	1350.097506929038	480.591253155536	1049.509983604890	1431.114976585302	668.013073668560	946.145255290748	1485.905623447869	523.892019819939	1030.714399692415	924.751890180844	642.157532283153	937.143912355467	962.078364345316	384.992452862396	1037.355721144899	719.021065920604	597.794496250121	961.082221785684	610.091196474810	668.908466659367	1011.374697564466	557.681389430952	571.482301833730	1001.617756652502	464.072425158793	576.060437438424	1016.621255585368	770.543585481624	397.904506909335	947.312599860399	641.293608887874	331.700061583178	1053.045678855638	580.282622159255	379.705792876408	1071.513361162994	517.460448476528	376.976017445954	1061.094151578393	446.325563210441	362.088115898802	999.757197305330	316.050478949587	304.589325308906	1093.980897569720	217.674527304348	350.491080581741	951.637133220298	382.527328952877	587.552529680927	867.578245754977	292.983098431316	655.992811572582	877.714940570613	195.744395694532	587.103450149210	710.786450406801	47.241101581043	566.913366800727	796.235900515869	38.139565740686	638.196008922638	1003.986929802145	39.133238655109	621.622175102652	1015.855435115469	37.491224933262	381.007713328495	1089.620211485254	43.246752286605	300.817473212639	1160.376956405754	120.655036661300	322.807128470704	1293.808235702503	92.549719093557	295.284708547122	695.598069798489	1133.273650861921	354.343294325585	620.869921389100	896.689908333039	441.693723341237	1297.214015549317	1210.169657386187	735.123890735221	1513.178047135265	1300.164666352829	624.927285215044	
